<?xml version="1.0" encoding="UTF-8" standalone="no"?>
<!DOCTYPE svg PUBLIC "-//W3C//DTD SVG 1.1//EN"
 "http://www.w3.org/Graphics/SVG/1.1/DTD/svg11.dtd">
<!-- Generated by graphviz version 2.38.0 (20140413.2041)
 -->
<!-- Title: G Pages: 1 -->
<svg width="326pt" height="202pt"
 viewBox="0.00 0.00 325.59 202.00" xmlns="http://www.w3.org/2000/svg" xmlns:xlink="http://www.w3.org/1999/xlink">
<g id="graph0" class="graph" transform="scale(1 1) rotate(0) translate(4 198)">
<title>G</title>
<polygon fill="white" stroke="none" points="-4,4 -4,-198 321.588,-198 321.588,4 -4,4"/>
<!-- _condition_0 &#160;&#160;&#160;&#160;&#160;&#160;&#160;&#160;&#160;&#160;&#160; -->
<g id="node1" class="node"><title>_condition_0 &#160;&#160;&#160;&#160;&#160;&#160;&#160;&#160;&#160;&#160;&#160;</title>
<ellipse fill="none" stroke="black" cx="144.943" cy="-176" rx="121.042" ry="18"/>
<text text-anchor="middle" x="144.943" y="-172.9" font-family="Courier New" font-size="12.00">_condition_0 &#160;&#160;&#160;&#160;&#160;&#160;&#160;&#160;&#160;&#160;&#160;</text>
</g>
<!-- forward_mat -->
<g id="node2" class="node"><title>forward_mat</title>
<ellipse fill="none" stroke="black" cx="60.9431" cy="-91" rx="60.8863" ry="18"/>
<text text-anchor="middle" x="60.9431" y="-87.9" font-family="Courier New" font-size="12.00">forward_mat</text>
</g>
<!-- _condition_0 &#160;&#160;&#160;&#160;&#160;&#160;&#160;&#160;&#160;&#160;&#160;&#45;&gt;forward_mat -->
<g id="edge1" class="edge"><title>_condition_0 &#160;&#160;&#160;&#160;&#160;&#160;&#160;&#160;&#160;&#160;&#160;&#45;&gt;forward_mat</title>
<path fill="none" stroke="black" d="M127.538,-157.802C115.131,-145.543 98.3026,-128.915 84.6669,-115.441"/>
<polygon fill="black" stroke="black" points="87.0416,-112.867 77.4683,-108.328 82.1216,-117.847 87.0416,-112.867"/>
<text text-anchor="middle" x="127.943" y="-130.4" font-family="Courier New" font-size="12.00">false</text>
</g>
<!-- ternary_match_mat -->
<g id="node3" class="node"><title>ternary_match_mat</title>
<ellipse fill="none" stroke="black" cx="228.943" cy="-91" rx="88.7893" ry="18"/>
<text text-anchor="middle" x="228.943" y="-87.9" font-family="Courier New" font-size="12.00">ternary_match_mat</text>
</g>
<!-- _condition_0 &#160;&#160;&#160;&#160;&#160;&#160;&#160;&#160;&#160;&#160;&#160;&#45;&gt;ternary_match_mat -->
<g id="edge2" class="edge"><title>_condition_0 &#160;&#160;&#160;&#160;&#160;&#160;&#160;&#160;&#160;&#160;&#160;&#45;&gt;ternary_match_mat</title>
<path fill="none" stroke="black" d="M162.348,-157.802C174.593,-145.703 191.144,-129.349 204.683,-115.971"/>
<polygon fill="black" stroke="black" points="207.195,-118.41 211.848,-108.892 202.275,-113.431 207.195,-118.41"/>
<text text-anchor="middle" x="208.443" y="-130.4" font-family="Courier New" font-size="12.00">true</text>
</g>
<!-- exit_control_flow -->
<g id="node4" class="node"><title>exit_control_flow</title>
<ellipse fill="none" stroke="black" cx="161.943" cy="-18" rx="88.7893" ry="18"/>
<text text-anchor="middle" x="161.943" y="-14.9" font-family="Courier New" font-size="12.00">exit_control_flow</text>
</g>
<!-- forward_mat&#45;&gt;exit_control_flow -->
<g id="edge4" class="edge"><title>forward_mat&#45;&gt;exit_control_flow</title>
<path fill="none" stroke="black" d="M83.3583,-74.2428C97.0582,-64.6121 114.802,-52.1391 129.961,-41.4826"/>
<polygon fill="black" stroke="black" points="132.37,-44.0676 138.538,-35.4533 128.344,-38.341 132.37,-44.0676"/>
</g>
<!-- ternary_match_mat&#45;&gt;exit_control_flow -->
<g id="edge3" class="edge"><title>ternary_match_mat&#45;&gt;exit_control_flow</title>
<path fill="none" stroke="black" d="M213.065,-73.174C204.76,-64.3728 194.434,-53.4309 185.242,-43.6896"/>
<polygon fill="black" stroke="black" points="187.581,-41.0693 178.173,-36.1984 182.49,-45.8736 187.581,-41.0693"/>
</g>
</g>
</svg>
