<?xml version="1.0" encoding="UTF-8" standalone="no"?>
<!DOCTYPE svg PUBLIC "-//W3C//DTD SVG 1.1//EN"
 "http://www.w3.org/Graphics/SVG/1.1/DTD/svg11.dtd">
<!-- Generated by graphviz version 2.38.0 (20140413.2041)
 -->
<!-- Title: G Pages: 1 -->
<svg width="437pt" height="332pt"
 viewBox="0.00 0.00 437.42 332.00" xmlns="http://www.w3.org/2000/svg" xmlns:xlink="http://www.w3.org/1999/xlink">
<g id="graph0" class="graph" transform="scale(1 1) rotate(0) translate(4 328)">
<title>G</title>
<polygon fill="white" stroke="none" points="-4,4 -4,-328 433.423,-328 433.423,4 -4,4"/>
<!-- start -->
<g id="node1" class="node"><title>start</title>
<ellipse fill="none" stroke="black" cx="88.7141" cy="-306" rx="33.4852" ry="18"/>
<text text-anchor="middle" x="88.7141" y="-302.9" font-family="Courier New" font-size="12.00">start</text>
</g>
<!-- parse_ethernet -->
<g id="node2" class="node"><title>parse_ethernet</title>
<ellipse fill="none" stroke="black" cx="88.7141" cy="-234" rx="75.2034" ry="18"/>
<text text-anchor="middle" x="88.7141" y="-230.9" font-family="Courier New" font-size="12.00">parse_ethernet</text>
</g>
<!-- start&#45;&gt;parse_ethernet -->
<g id="edge1" class="edge"><title>start&#45;&gt;parse_ethernet</title>
<path fill="none" stroke="black" d="M88.7141,-287.697C88.7141,-279.983 88.7141,-270.712 88.7141,-262.112"/>
<polygon fill="black" stroke="black" points="92.2142,-262.104 88.7141,-252.104 85.2142,-262.104 92.2142,-262.104"/>
</g>
<!-- parse_ipv4 -->
<g id="node3" class="node"><title>parse_ipv4</title>
<ellipse fill="none" stroke="black" cx="219.714" cy="-162" rx="56.7683" ry="18"/>
<text text-anchor="middle" x="219.714" y="-158.9" font-family="Courier New" font-size="12.00">parse_ipv4</text>
</g>
<!-- parse_ethernet&#45;&gt;parse_ipv4 -->
<g id="edge2" class="edge"><title>parse_ethernet&#45;&gt;parse_ipv4</title>
<path fill="none" stroke="black" d="M118.113,-217.291C137.215,-207.084 162.274,-193.693 182.725,-182.765"/>
<polygon fill="black" stroke="black" points="184.589,-185.737 191.759,-177.938 181.29,-179.564 184.589,-185.737"/>
</g>
<!-- parse_ipv6 -->
<g id="node4" class="node"><title>parse_ipv6</title>
<ellipse fill="none" stroke="black" cx="88.7141" cy="-162" rx="56.7683" ry="18"/>
<text text-anchor="middle" x="88.7141" y="-158.9" font-family="Courier New" font-size="12.00">parse_ipv6</text>
</g>
<!-- parse_ethernet&#45;&gt;parse_ipv6 -->
<g id="edge3" class="edge"><title>parse_ethernet&#45;&gt;parse_ipv6</title>
<path fill="none" stroke="black" d="M88.7141,-215.697C88.7141,-207.983 88.7141,-198.712 88.7141,-190.112"/>
<polygon fill="black" stroke="black" points="92.2142,-190.104 88.7141,-180.104 85.2142,-190.104 92.2142,-190.104"/>
</g>
<!-- _condition_0 &#160;&#160;&#160;&#160;&#160;&#160;&#160;&#160;&#160;&#160;&#160; -->
<g id="node5" class="node"><title>_condition_0 &#160;&#160;&#160;&#160;&#160;&#160;&#160;&#160;&#160;&#160;&#160;</title>
<polygon fill="none" stroke="black" points="253.214,-36 56.2141,-36 56.2141,-0 253.214,-0 253.214,-36"/>
<text text-anchor="middle" x="154.714" y="-14.9" font-family="Courier New" font-size="12.00">_condition_0 &#160;&#160;&#160;&#160;&#160;&#160;&#160;&#160;&#160;&#160;&#160;</text>
</g>
<!-- parse_ethernet&#45;&gt;_condition_0 &#160;&#160;&#160;&#160;&#160;&#160;&#160;&#160;&#160;&#160;&#160; -->
<g id="edge4" class="edge"><title>parse_ethernet&#45;&gt;_condition_0 &#160;&#160;&#160;&#160;&#160;&#160;&#160;&#160;&#160;&#160;&#160;</title>
<path fill="none" stroke="black" d="M59.6338,-217.202C46.0122,-208.189 30.9928,-195.571 22.7141,-180 0.145435,-137.553 -10.512,-111.621 16.7141,-72 26.3127,-58.0314 40.1425,-47.7427 55.3816,-40.1648"/>
<polygon fill="black" stroke="black" points="56.8491,-43.3425 64.4958,-36.0091 53.9449,-36.9733 56.8491,-43.3425"/>
</g>
<!-- parse_ipv4&#45;&gt;_condition_0 &#160;&#160;&#160;&#160;&#160;&#160;&#160;&#160;&#160;&#160;&#160; -->
<g id="edge8" class="edge"><title>parse_ipv4&#45;&gt;_condition_0 &#160;&#160;&#160;&#160;&#160;&#160;&#160;&#160;&#160;&#160;&#160;</title>
<path fill="none" stroke="black" d="M245.05,-145.696C257.701,-136.516 271.761,-123.593 278.714,-108 285.23,-93.3871 287.528,-85.3532 278.714,-72 269.636,-58.2465 256.174,-48.0494 241.427,-40.4927"/>
<polygon fill="black" stroke="black" points="242.647,-37.1987 232.107,-36.1206 239.674,-43.5361 242.647,-37.1987"/>
</g>
<!-- parse_icmp -->
<g id="node6" class="node"><title>parse_icmp</title>
<ellipse fill="none" stroke="black" cx="91.7141" cy="-90" rx="56.7683" ry="18"/>
<text text-anchor="middle" x="91.7141" y="-86.9" font-family="Courier New" font-size="12.00">parse_icmp</text>
</g>
<!-- parse_ipv4&#45;&gt;parse_icmp -->
<g id="edge5" class="edge"><title>parse_ipv4&#45;&gt;parse_icmp</title>
<path fill="none" stroke="black" d="M192.569,-146.155C173.647,-135.807 148.205,-121.893 127.609,-110.63"/>
<polygon fill="black" stroke="black" points="129.274,-107.551 118.821,-105.824 125.915,-113.693 129.274,-107.551"/>
</g>
<!-- parse_tcp -->
<g id="node7" class="node"><title>parse_tcp</title>
<ellipse fill="none" stroke="black" cx="217.714" cy="-90" rx="51.9195" ry="18"/>
<text text-anchor="middle" x="217.714" y="-86.9" font-family="Courier New" font-size="12.00">parse_tcp</text>
</g>
<!-- parse_ipv4&#45;&gt;parse_tcp -->
<g id="edge6" class="edge"><title>parse_ipv4&#45;&gt;parse_tcp</title>
<path fill="none" stroke="black" d="M219.22,-143.697C218.999,-135.983 218.734,-126.712 218.489,-118.112"/>
<polygon fill="black" stroke="black" points="221.987,-118 218.203,-108.104 214.99,-118.2 221.987,-118"/>
</g>
<!-- parse_udp -->
<g id="node8" class="node"><title>parse_udp</title>
<ellipse fill="none" stroke="black" cx="377.714" cy="-90" rx="51.9195" ry="18"/>
<text text-anchor="middle" x="377.714" y="-86.9" font-family="Courier New" font-size="12.00">parse_udp</text>
</g>
<!-- parse_ipv4&#45;&gt;parse_udp -->
<g id="edge7" class="edge"><title>parse_ipv4&#45;&gt;parse_udp</title>
<path fill="none" stroke="black" d="M251.308,-147.003C276.092,-136.023 310.753,-120.666 337.513,-108.811"/>
<polygon fill="black" stroke="black" points="339.256,-111.866 346.981,-104.616 336.421,-105.466 339.256,-111.866"/>
</g>
<!-- parse_ipv6&#45;&gt;_condition_0 &#160;&#160;&#160;&#160;&#160;&#160;&#160;&#160;&#160;&#160;&#160; -->
<g id="edge11" class="edge"><title>parse_ipv6&#45;&gt;_condition_0 &#160;&#160;&#160;&#160;&#160;&#160;&#160;&#160;&#160;&#160;&#160;</title>
<path fill="none" stroke="black" d="M61.7042,-146.074C48.2089,-137.005 33.1942,-124.068 25.7141,-108 18.9615,-93.4948 16.8059,-85.2907 25.7141,-72 34.9799,-58.1758 48.5695,-47.9543 63.4932,-40.3975"/>
<polygon fill="black" stroke="black" points="65.3267,-43.4056 72.931,-36.0283 62.3858,-37.0533 65.3267,-43.4056"/>
</g>
<!-- parse_ipv6&#45;&gt;parse_icmp -->
<g id="edge9" class="edge"><title>parse_ipv6&#45;&gt;parse_icmp</title>
<path fill="none" stroke="black" d="M89.4557,-143.697C89.7863,-135.983 90.1836,-126.712 90.5522,-118.112"/>
<polygon fill="black" stroke="black" points="94.0496,-118.245 90.9811,-108.104 87.056,-117.945 94.0496,-118.245"/>
</g>
<!-- parse_ipv6&#45;&gt;parse_tcp -->
<g id="edge10" class="edge"><title>parse_ipv6&#45;&gt;parse_tcp</title>
<path fill="none" stroke="black" d="M116.072,-146.155C135.27,-135.737 161.129,-121.705 181.959,-110.402"/>
<polygon fill="black" stroke="black" points="183.718,-113.43 190.838,-105.584 180.38,-107.277 183.718,-113.43"/>
</g>
<!-- parse_icmp&#45;&gt;_condition_0 &#160;&#160;&#160;&#160;&#160;&#160;&#160;&#160;&#160;&#160;&#160; -->
<g id="edge12" class="edge"><title>parse_icmp&#45;&gt;_condition_0 &#160;&#160;&#160;&#160;&#160;&#160;&#160;&#160;&#160;&#160;&#160;</title>
<path fill="none" stroke="black" d="M106.644,-72.411C114.263,-63.946 123.689,-53.4725 132.17,-44.0487"/>
<polygon fill="black" stroke="black" points="134.924,-46.2211 139.012,-36.4468 129.721,-41.5384 134.924,-46.2211"/>
</g>
<!-- parse_tcp&#45;&gt;_condition_0 &#160;&#160;&#160;&#160;&#160;&#160;&#160;&#160;&#160;&#160;&#160; -->
<g id="edge13" class="edge"><title>parse_tcp&#45;&gt;_condition_0 &#160;&#160;&#160;&#160;&#160;&#160;&#160;&#160;&#160;&#160;&#160;</title>
<path fill="none" stroke="black" d="M202.784,-72.411C195.166,-63.946 185.739,-53.4725 177.258,-44.0487"/>
<polygon fill="black" stroke="black" points="179.707,-41.5384 170.416,-36.4468 174.504,-46.2211 179.707,-41.5384"/>
</g>
<!-- parse_udp&#45;&gt;_condition_0 &#160;&#160;&#160;&#160;&#160;&#160;&#160;&#160;&#160;&#160;&#160; -->
<g id="edge14" class="edge"><title>parse_udp&#45;&gt;_condition_0 &#160;&#160;&#160;&#160;&#160;&#160;&#160;&#160;&#160;&#160;&#160;</title>
<path fill="none" stroke="black" d="M340.64,-77.3623C307.459,-66.9469 258.096,-51.4517 218.57,-39.0446"/>
<polygon fill="black" stroke="black" points="219.598,-35.6988 209.009,-36.0432 217.501,-42.3775 219.598,-35.6988"/>
</g>
</g>
</svg>
